<?xml version="1.0" encoding="utf-8"?>
<!-- Generator: Adobe Illustrator 14.0.0, SVG Export Plug-In  -->
<!DOCTYPE svg PUBLIC "-//W3C//DTD SVG 1.1//EN" "http://www.w3.org/Graphics/SVG/1.1/DTD/svg11.dtd" [
	<!ENTITY ns_flows "http://ns.adobe.com/Flows/1.0/">
]>
<svg version="1.1"
	 xmlns="http://www.w3.org/2000/svg" xmlns:xlink="http://www.w3.org/1999/xlink" xmlns:a="http://ns.adobe.com/AdobeSVGViewerExtensions/3.0/"
	 x="0px" y="0px" width="960px" height="80px" viewBox="0 0 960 80" enable-background="new 0 0 960 80" xml:space="preserve">
<defs>
</defs>
<rect fill="none" width="960" height="80"/>
<radialGradient id="SVGID_1_" cx="-3454.9653" cy="-2820.834" r="61.1174" gradientTransform="matrix(0.1199 -0.7803 -0.9884 -0.1518 -1446.9049 -3071.2156)" gradientUnits="userSpaceOnUse">
	<stop  offset="0" style="stop-color:#E0091D"/>
	<stop  offset="0.0233" style="stop-color:#D90D1D"/>
	<stop  offset="0.2123" style="stop-color:#A7181E"/>
	<stop  offset="0.3963" style="stop-color:#80191B"/>
	<stop  offset="0.5712" style="stop-color:#641717"/>
	<stop  offset="0.7346" style="stop-color:#501313"/>
	<stop  offset="0.8821" style="stop-color:#441110"/>
	<stop  offset="1" style="stop-color:#41100F"/>
</radialGradient>
<polygon fill="url(#SVGID_1_)" points="910.796,2.021 903.158,67.975 945.719,63.248 955.661,13.698 "/>
<radialGradient id="SVGID_2_" cx="479.6865" cy="40" r="340.5746" gradientTransform="matrix(0.9669 0 0 1 0.2848 0)" gradientUnits="userSpaceOnUse">
	<stop  offset="0" style="stop-color:#E2001A"/>
	<stop  offset="0.184" style="stop-color:#C00418"/>
	<stop  offset="0.3729" style="stop-color:#A10C16"/>
	<stop  offset="0.5545" style="stop-color:#880E13"/>
	<stop  offset="0.7243" style="stop-color:#750E10"/>
	<stop  offset="0.8775" style="stop-color:#690D0E"/>
	<stop  offset="1" style="stop-color:#650D0E"/>
</radialGradient>
<rect fill="url(#SVGID_2_)" width="928.188" height="80"/>
<path fill="#FFFFFF" d="M276.369,73.967c-2.78,0-4.989-1.763-4.989-4.451v-8.334h2.647v8.245c0,1.46,0.914,2.332,2.342,2.332
	s2.361-0.872,2.361-2.332v-8.245h2.628v8.334C281.358,72.204,279.149,73.967,276.369,73.967z"/>
<path fill="#FFFFFF" d="M292.331,73.86l-5.37-7.781v7.781h-2.647V61.182h2.361l5.37,7.764v-7.764h2.647V73.86H292.331z"/>
<path fill="#FFFFFF" d="M305.57,73.86l-0.8-2.244h-4.817l-0.819,2.244h-2.761l4.932-12.679h2.076l4.951,12.679H305.57z
	 M302.409,64.921l-1.714,4.612h3.371L302.409,64.921z"/>
<path fill="#FFFFFF" d="M319.362,73.86h-1.98l-4.476-12.679h2.742l2.724,8.263l2.724-8.263h2.761L319.362,73.86z"/>
<path fill="#FFFFFF" d="M325.498,73.86V61.182h2.646V73.86H325.498z"/>
<path fill="#FFFFFF" d="M335.039,73.967c-2.057,0-3.617-0.409-4.951-1.674l1.715-1.603c0.856,0.802,2.018,1.068,3.275,1.068
	c1.561,0,2.398-0.552,2.398-1.566c0-0.445-0.133-0.819-0.418-1.068c-0.268-0.231-0.572-0.356-1.2-0.445l-1.638-0.214
	c-1.162-0.16-2.019-0.499-2.628-1.051c-0.647-0.605-0.972-1.425-0.972-2.493c0-2.261,1.791-3.846,4.723-3.846
	c1.867,0,3.219,0.427,4.381,1.478l-1.676,1.55c-0.857-0.767-1.886-0.873-2.781-0.873c-1.408,0-2.094,0.73-2.094,1.603
	c0,0.32,0.113,0.659,0.399,0.908c0.267,0.231,0.704,0.428,1.257,0.499l1.6,0.213c1.238,0.161,2.019,0.481,2.59,0.979
	c0.724,0.642,1.047,1.567,1.047,2.689C340.066,72.578,337.876,73.967,335.039,73.967z"/>
<path fill="#FFFFFF" d="M342.564,73.86V61.182h2.647V73.86H342.564z"/>
<path fill="#FFFFFF" d="M356.582,72.578c-0.952,0.891-2.113,1.389-3.656,1.389s-2.723-0.498-3.676-1.389
	c-1.371-1.282-1.332-2.867-1.332-5.057c0-2.19-0.039-3.775,1.332-5.058c0.953-0.891,2.133-1.389,3.676-1.389
	s2.704,0.498,3.656,1.389c1.371,1.282,1.352,2.867,1.352,5.058C357.933,69.711,357.953,71.296,356.582,72.578z M354.621,63.96
	c-0.381-0.41-0.972-0.677-1.695-0.677s-1.333,0.267-1.714,0.677c-0.515,0.534-0.647,1.121-0.647,3.562
	c0,2.439,0.133,3.026,0.647,3.561c0.381,0.41,0.99,0.677,1.714,0.677s1.314-0.267,1.695-0.677c0.514-0.534,0.666-1.121,0.666-3.561
	C355.287,65.081,355.134,64.494,354.621,63.96z"/>
<path fill="#FFFFFF" d="M368.659,73.86l-5.37-7.781v7.781h-2.646V61.182h2.361l5.369,7.764v-7.764h2.647V73.86H368.659z"/>
<path fill="#FFFFFF" d="M374.185,73.86V61.182h8.932v2.208h-6.284v2.974h5.351v2.208h-5.351v3.081h6.284v2.208H374.185z"/>
<path fill="#FFFFFF" d="M395.384,69.088h-2.608v4.772h-2.647V61.182h5.256c2.8,0,4.476,1.799,4.476,3.953
	C399.86,67.29,398.184,69.088,395.384,69.088z M395.251,63.39h-2.476v3.473h2.476c1.199,0,1.961-0.694,1.961-1.728
	C397.212,64.103,396.451,63.39,395.251,63.39z"/>
<path fill="#FFFFFF" d="M410.299,72.578c-0.952,0.891-2.114,1.389-3.656,1.389s-2.724-0.498-3.675-1.389
	c-1.371-1.282-1.334-2.867-1.334-5.057c0-2.19-0.037-3.775,1.334-5.058c0.951-0.891,2.133-1.389,3.675-1.389
	s2.704,0.498,3.656,1.389c1.371,1.282,1.353,2.867,1.353,5.058C411.652,69.711,411.67,71.296,410.299,72.578z M408.337,63.96
	c-0.381-0.41-0.971-0.677-1.694-0.677s-1.333,0.267-1.714,0.677c-0.514,0.534-0.647,1.121-0.647,3.562
	c0,2.439,0.134,3.026,0.647,3.561c0.381,0.41,0.99,0.677,1.714,0.677s1.313-0.267,1.694-0.677c0.515-0.534,0.667-1.121,0.667-3.561
	C409.004,65.081,408.852,64.494,408.337,63.96z"/>
<path fill="#FFFFFF" d="M418.091,73.967c-2.057,0-3.617-0.409-4.951-1.674l1.715-1.603c0.856,0.802,2.018,1.068,3.275,1.068
	c1.561,0,2.398-0.552,2.398-1.566c0-0.445-0.133-0.819-0.418-1.068c-0.268-0.231-0.572-0.356-1.2-0.445l-1.638-0.214
	c-1.162-0.16-2.019-0.499-2.628-1.051c-0.647-0.605-0.972-1.425-0.972-2.493c0-2.261,1.791-3.846,4.723-3.846
	c1.867,0,3.219,0.427,4.381,1.478l-1.676,1.55c-0.857-0.767-1.886-0.873-2.781-0.873c-1.408,0-2.094,0.73-2.094,1.603
	c0,0.32,0.113,0.659,0.399,0.908c0.267,0.231,0.704,0.428,1.257,0.499l1.6,0.213c1.238,0.161,2.019,0.481,2.59,0.979
	c0.724,0.642,1.047,1.567,1.047,2.689C423.119,72.578,420.929,73.967,418.091,73.967z"/>
<path fill="#FFFFFF" d="M429.234,73.967c-2.057,0-3.619-0.409-4.951-1.674l1.713-1.603c0.857,0.802,2.02,1.068,3.275,1.068
	c1.563,0,2.4-0.552,2.4-1.566c0-0.445-0.134-0.819-0.42-1.068c-0.266-0.231-0.57-0.356-1.199-0.445l-1.638-0.214
	c-1.161-0.16-2.019-0.499-2.628-1.051c-0.647-0.605-0.971-1.425-0.971-2.493c0-2.261,1.789-3.846,4.723-3.846
	c1.865,0,3.218,0.427,4.379,1.478l-1.676,1.55c-0.856-0.767-1.885-0.873-2.779-0.873c-1.41,0-2.096,0.73-2.096,1.603
	c0,0.32,0.115,0.659,0.4,0.908c0.267,0.231,0.705,0.428,1.257,0.499l1.6,0.213c1.237,0.161,2.019,0.481,2.59,0.979
	c0.724,0.642,1.048,1.567,1.048,2.689C434.261,72.578,432.071,73.967,429.234,73.967z"/>
<path fill="#FFFFFF" d="M436.759,73.86V61.182h2.646V73.86H436.759z"/>
<path fill="#FFFFFF" d="M448.244,73.86h-5.676V61.182h5.447c2.646,0,4.189,1.389,4.189,3.562c0,1.407-0.99,2.314-1.676,2.617
	c0.818,0.356,1.865,1.158,1.865,2.85C452.394,72.578,450.662,73.86,448.244,73.86z M447.805,63.39h-2.59v2.921h2.59
	c1.124,0,1.752-0.588,1.752-1.461C449.557,63.978,448.929,63.39,447.805,63.39z M447.976,68.536h-2.761v3.116h2.761
	c1.2,0,1.771-0.712,1.771-1.567C449.748,69.23,449.176,68.536,447.976,68.536z"/>
<path fill="#FFFFFF" d="M455.103,73.86V61.182h2.646V73.86H455.103z"/>
<path fill="#FFFFFF" d="M460.912,73.86V61.182h2.647v10.471h6.151v2.208H460.912z"/>
<path fill="#FFFFFF" d="M471.865,73.86V61.182h8.932v2.208h-6.284v2.974h5.351v2.208h-5.351v3.081h6.284v2.208H471.865z"/>
<path fill="#FFFFFF" d="M493.064,69.088h-2.609v4.772h-2.647V61.182h5.256c2.799,0,4.475,1.799,4.475,3.953
	C497.539,67.29,495.863,69.088,493.064,69.088z M492.932,63.39h-2.476v3.473h2.476c1.199,0,1.961-0.694,1.961-1.728
	C494.893,64.103,494.131,63.39,492.932,63.39z"/>
<path fill="#FFFFFF" d="M499.771,73.86V61.182h8.932v2.208h-6.285v2.974h5.352v2.208h-5.352v3.081h6.285v2.208H499.771z"/>
<path fill="#FFFFFF" d="M518.494,73.86l-2.646-5.058h-1.904v5.058h-2.646V61.182h5.313c2.762,0,4.398,1.763,4.398,3.882
	c0,1.781-1.162,2.885-2.475,3.33l3.027,5.467H518.494z M516.438,63.39h-2.494v3.348h2.494c1.162,0,1.924-0.694,1.924-1.674
	S517.6,63.39,516.438,63.39z"/>
<path fill="#FFFFFF" d="M532.953,73.967c-2.781,0-4.99-1.763-4.99-4.451v-8.334h2.648v8.245c0,1.46,0.914,2.332,2.342,2.332
	s2.361-0.872,2.361-2.332v-8.245h2.627v8.334C537.941,72.204,535.732,73.967,532.953,73.967z"/>
<path fill="#FFFFFF" d="M548.914,73.86l-5.369-7.781v7.781h-2.646V61.182h2.361l5.369,7.764v-7.764h2.646V73.86H548.914z"/>
<path fill="#FFFFFF" d="M561.508,63.39v3.116h5.352v2.208h-5.352v5.146h-2.646V61.182h8.93v2.208H561.508z"/>
<path fill="#FFFFFF" d="M574.879,73.967c-2.779,0-4.988-1.763-4.988-4.451v-8.334h2.646v8.245c0,1.46,0.914,2.332,2.342,2.332
	c1.43,0,2.361-0.872,2.361-2.332v-8.245h2.629v8.334C579.869,72.204,577.66,73.967,574.879,73.967z"/>
<path fill="#FFFFFF" d="M588.004,63.39V73.86h-2.646V63.39h-3.543v-2.208h9.732v2.208H588.004z"/>
<path fill="#FFFFFF" d="M598.48,73.967c-2.779,0-4.988-1.763-4.988-4.451v-8.334h2.646v8.245c0,1.46,0.914,2.332,2.342,2.332
	c1.43,0,2.361-0.872,2.361-2.332v-8.245h2.629v8.334C603.471,72.204,601.262,73.967,598.48,73.967z"/>
<path fill="#FFFFFF" d="M613.625,73.86l-2.648-5.058h-1.904v5.058h-2.646V61.182h5.313c2.762,0,4.4,1.763,4.4,3.882
	c0,1.781-1.162,2.885-2.477,3.33l3.027,5.467H613.625z M611.568,63.39h-2.496v3.348h2.496c1.16,0,1.922-0.694,1.922-1.674
	S612.729,63.39,611.568,63.39z"/>
<path fill="#FFFFFF" d="M627.092,72.578c-0.953,0.891-2.113,1.389-3.656,1.389s-2.723-0.498-3.676-1.389
	c-1.371-1.282-1.332-2.867-1.332-5.057c0-2.19-0.039-3.775,1.332-5.058c0.953-0.891,2.133-1.389,3.676-1.389
	s2.703,0.498,3.656,1.389c1.371,1.282,1.352,2.867,1.352,5.058C628.443,69.711,628.463,71.296,627.092,72.578z M625.131,63.96
	c-0.381-0.41-0.973-0.677-1.695-0.677c-0.725,0-1.334,0.267-1.715,0.677c-0.514,0.534-0.646,1.121-0.646,3.562
	c0,2.439,0.133,3.026,0.646,3.561c0.381,0.41,0.99,0.677,1.715,0.677c0.723,0,1.314-0.267,1.695-0.677
	c0.514-0.534,0.666-1.121,0.666-3.561C625.797,65.081,625.645,64.494,625.131,63.96z"/>
<path fill="#FFFFFF" d="M639.303,73.967c-2.057,0-3.617-0.409-4.951-1.674l1.715-1.603c0.855,0.802,2.018,1.068,3.275,1.068
	c1.561,0,2.398-0.552,2.398-1.566c0-0.445-0.133-0.819-0.418-1.068c-0.268-0.231-0.572-0.356-1.201-0.445l-1.637-0.214
	c-1.162-0.16-2.02-0.499-2.629-1.051c-0.646-0.605-0.971-1.425-0.971-2.493c0-2.261,1.791-3.846,4.723-3.846
	c1.867,0,3.219,0.427,4.381,1.478l-1.676,1.55c-0.857-0.767-1.887-0.873-2.781-0.873c-1.408,0-2.094,0.73-2.094,1.603
	c0,0.32,0.113,0.659,0.398,0.908c0.268,0.231,0.705,0.428,1.258,0.499l1.6,0.213c1.238,0.161,2.018,0.481,2.59,0.979
	c0.723,0.642,1.047,1.567,1.047,2.689C644.33,72.578,642.141,73.967,639.303,73.967z"/>
<path fill="#FFFFFF" d="M655.035,72.578c-0.951,0.891-2.113,1.389-3.656,1.389c-1.541,0-2.723-0.498-3.674-1.389
	c-1.371-1.282-1.334-2.867-1.334-5.057c0-2.19-0.037-3.775,1.334-5.058c0.951-0.891,2.133-1.389,3.674-1.389
	c1.543,0,2.705,0.498,3.656,1.389c1.371,1.282,1.354,2.867,1.354,5.058C656.389,69.711,656.406,71.296,655.035,72.578z
	 M653.074,63.96c-0.381-0.41-0.971-0.677-1.695-0.677c-0.723,0-1.332,0.267-1.713,0.677c-0.514,0.534-0.648,1.121-0.648,3.562
	c0,2.439,0.135,3.026,0.648,3.561c0.381,0.41,0.99,0.677,1.713,0.677c0.725,0,1.314-0.267,1.695-0.677
	c0.514-0.534,0.666-1.121,0.666-3.561C653.74,65.081,653.588,64.494,653.074,63.96z"/>
<path fill="#FFFFFF" d="M662.828,73.967c-2.057,0-3.617-0.409-4.951-1.674l1.715-1.603c0.855,0.802,2.018,1.068,3.275,1.068
	c1.561,0,2.398-0.552,2.398-1.566c0-0.445-0.133-0.819-0.418-1.068c-0.268-0.231-0.572-0.356-1.201-0.445l-1.637-0.214
	c-1.162-0.16-2.02-0.499-2.629-1.051c-0.646-0.605-0.971-1.425-0.971-2.493c0-2.261,1.791-3.846,4.723-3.846
	c1.867,0,3.219,0.427,4.381,1.478l-1.676,1.55c-0.857-0.767-1.887-0.873-2.781-0.873c-1.408,0-2.094,0.73-2.094,1.603
	c0,0.32,0.113,0.659,0.398,0.908c0.268,0.231,0.705,0.428,1.258,0.499l1.6,0.213c1.238,0.161,2.018,0.481,2.59,0.979
	c0.723,0.642,1.047,1.567,1.047,2.689C667.855,72.578,665.666,73.967,662.828,73.967z"/>
<path fill="#FFFFFF" d="M675.533,63.39V73.86h-2.646V63.39h-3.543v-2.208h9.732v2.208H675.533z"/>
<path fill="#FFFFFF" d="M681.23,73.86V61.182h8.932v2.208h-6.285v2.974h5.352v2.208h-5.352v3.081h6.285v2.208H681.23z"/>
<path fill="#FFFFFF" d="M700.771,73.86l-5.369-7.781v7.781h-2.646V61.182h2.361l5.369,7.764v-7.764h2.646V73.86H700.771z"/>
<path fill="#FFFFFF" d="M706.299,73.86V61.182h2.646V73.86H706.299z"/>
<path fill="#FFFFFF" d="M717.783,73.86h-5.674V61.182h5.445c2.646,0,4.189,1.389,4.189,3.562c0,1.407-0.99,2.314-1.676,2.617
	c0.818,0.356,1.867,1.158,1.867,2.85C721.936,72.578,720.201,73.86,717.783,73.86z M717.346,63.39h-2.59v2.921h2.59
	c1.123,0,1.752-0.588,1.752-1.461C719.098,63.978,718.469,63.39,717.346,63.39z M717.518,68.536h-2.762v3.116h2.762
	c1.199,0,1.77-0.712,1.77-1.567C719.287,69.23,718.717,68.536,717.518,68.536z"/>
<path fill="#FFFFFF" d="M724.643,73.86V61.182h2.646V73.86H724.643z"/>
<path fill="#FFFFFF" d="M730.453,73.86V61.182h2.646v10.471h6.15v2.208H730.453z"/>
<path fill="#FFFFFF" d="M741.406,73.86V61.182h8.93v2.208h-6.283v2.974h5.352v2.208h-5.352v3.081h6.283v2.208H741.406z"/>
<path fill="#FFFFFF" d="M15.498,74.165V41.876h6.303v26.666h14.648v5.623H15.498z"/>
<path fill="#97BF0D" d="M50.141,74.438c-5.26,0-9.841-3.447-9.841-9.614V51.219c0-6.168,4.581-9.614,9.841-9.614
	s9.795,3.446,9.795,9.614v13.604C59.936,70.99,55.401,74.438,50.141,74.438z M54.041,51.31c0-2.722-1.587-4.399-3.9-4.399
	s-3.945,1.678-3.945,4.399v13.468c0,2.722,1.632,4.354,3.945,4.354s3.9-1.632,3.9-4.354V51.31z"/>
<path fill="#FFFFFF" d="M89.137,74.165v-18.82L82.97,67.59h-4.263l-6.213-12.245v18.82h-6.303V41.876h6.213l8.435,17.46l8.39-17.46
	h6.213v32.289H89.137z"/>
<path fill="#FFFFFF" d="M116.477,74.165h-13.514V41.876h12.97c6.304,0,9.977,3.538,9.977,9.07c0,3.583-2.358,5.896-3.991,6.666
	c1.95,0.907,4.444,2.948,4.444,7.256C126.363,70.899,122.237,74.165,116.477,74.165z M115.434,47.5h-6.167v7.437h6.167
	c2.676,0,4.172-1.496,4.172-3.718C119.606,48.996,118.11,47.5,115.434,47.5z M115.842,60.605h-6.576v7.937h6.576
	c2.857,0,4.218-1.814,4.218-3.991S118.699,60.605,115.842,60.605z"/>
<path fill="#FFFFFF" d="M151.165,74.165l-1.905-5.714h-11.473l-1.95,5.714h-6.576l11.746-32.289h4.943l11.791,32.289H151.165z
	 M143.637,51.399l-4.082,11.746h8.027L143.637,51.399z"/>
<path fill="#FFFFFF" d="M178.868,74.165l-6.303-12.879h-4.535v12.879h-6.303V41.876h12.652c6.576,0,10.476,4.49,10.476,9.887
	c0,4.535-2.766,7.347-5.896,8.48l7.21,13.922H178.868z M173.971,47.5h-5.941v8.525h5.941c2.766,0,4.58-1.769,4.58-4.263
	S176.737,47.5,173.971,47.5z"/>
<path fill="#FFFFFF" d="M211.561,71.081c-2.131,2.132-5.17,3.084-8.526,3.084H191.38V41.876h11.654c3.356,0,6.395,0.953,8.526,3.084
	c3.628,3.628,3.265,8.072,3.265,12.925S215.188,67.453,211.561,71.081z M207.162,49.495c-1.088-1.315-2.54-1.995-4.716-1.995h-4.762
	v21.042h4.762c2.177,0,3.628-0.681,4.716-1.996c1.179-1.451,1.36-3.764,1.36-8.661S208.341,50.946,207.162,49.495z"/>
<path fill="#FFFFFF" d="M221.261,74.165V41.876h6.303v32.289H221.261z"/>
<path fill="#FFFFFF" d="M253.457,74.165l-1.905-5.714h-11.473l-1.95,5.714h-6.576l11.746-32.289h4.943l11.791,32.289H253.457z
	 M245.929,51.399l-4.082,11.746h8.027L245.929,51.399z"/>
<path fill="#97BF0D" d="M39.58,36.821v-5.306l12.063-14.013c1.179-1.406,1.678-2.404,1.678-3.9c0-2.403-1.406-4.036-3.9-4.036
	c-1.95,0-3.945,0.998-3.945,4.127H39.58c0-5.896,4.308-9.433,9.84-9.433c5.714,0,9.796,3.582,9.796,9.387
	c0,3.13-1.225,4.808-3.447,7.393l-9.024,10.476h12.471v5.306H39.58z"/>
<path fill="#97BF0D" d="M63.5,36.821v-6.712h6.757v6.712H63.5z"/>
<polygon fill="#FFFFFF" points="857.584,17.837 955.709,14.089 942.679,76.774 872.216,78.287 "/>
<path fill="#E5E5E6" d="M955.399,14.352l-12.925,62.178l-70.063,1.503l-14.513-59.957L955.399,14.352 M956.019,13.827l-98.749,3.771
	l14.751,60.942l70.862-1.521L956.019,13.827L956.019,13.827z"/>
<path fill-rule="evenodd" clip-rule="evenodd" fill="#06892F" d="M901.23,41.049c0-1.763,0.903-3.788,2.887-5.281
	c1.969-1.495,9.861-6.779,9.861-6.779s2.482-1.648,4.306-1.384c1.821,0.269,3.343,0.269,1.57,2.561
	c-1.771,2.296-4.709,3.952-5.01,3.468c-0.305-0.481,0.911-3.893,2.579-4.483c1.676-0.589-4-0.852-4.861,7.739
	c-0.86,8.587-4,10.565-6.43,12.003c-2.431,1.439-4.504,0.8-4.504,0.8s-1.262-0.477-0.349-2.081c0,0,0.349-0.796,0.55,0.537
	c0.209,1.334,1.523,1.012,2.033,0.642c0.503-0.375,0.854-1.495,0.355-2.354C903.702,45.587,901.23,43.292,901.23,41.049
	L901.23,41.049z"/>
<path fill-rule="evenodd" clip-rule="evenodd" fill="#06892F" d="M921.877,45.533c-0.856-0.966-1.008,0.103-1.008,0.103
	s0.862,0.697-0.104,2.295c-0.958,1.599-3.192,1.864-3.903,1.864c-0.704,0-0.352,0.434-0.352,0.434s1.063,1.171-0.247,2.769
	c-1.322,1.603-3.902,1.176-4.713,0.807c-0.809-0.378-0.502-0.062-0.502-0.062c-0.562,1.288-2.18,0.913-2.18,0.913
	c-2.931,0.051-5.719-3.045-5.919-3.474c-0.012-0.017-0.022-0.041-0.034-0.065c-0.8-0.033-1.65-0.266-2.092-0.845
	c-1.92-2.474,0.987-4.636,0.987-4.636s-1.723-1.388-1.586-4.436c-0.161-0.146-0.331,0.058-0.331,0.058
	c-4.636,3.445-5.685,8.089-0.942,11.902c3.446,2.78,9.21,2.504,9.21,2.504s6.023,0.485,9.821-1.273
	c3.793-1.764,4.402-5.285,4.402-5.285S922.74,46.49,921.877,45.533L921.877,45.533z"/>
<path fill-rule="evenodd" clip-rule="evenodd" fill="#06892F" d="M909.446,52.951c-2.149-0.936-3.032-2.365-3.225-2.565
	c-0.053-0.055-0.086-0.126-0.114-0.199c-1.13,0.531-1.935,0.787-1.935,0.787c-0.085,0.027-0.18,0.051-0.285,0.073
	c0.053,0.047,0.099,0.079,0.099,0.079c1.683,2.22,4.061,2.862,4.434,2.91C908.792,54.086,911.601,53.887,909.446,52.951
	L909.446,52.951z"/>
<path fill-rule="evenodd" clip-rule="evenodd" fill="#06892F" d="M913.979,50.063c-2.023-0.423-3.847-1.334-4.302-1.809
	c-0.054-0.073-0.109-0.117-0.168-0.162c-0.84,0.665-1.705,1.209-2.493,1.634c0.066,0.045,0.14,0.068,0.14,0.068
	s0.851,1.076,2.126,1.922c1.257,0.858,3.13,1.553,4.294,1.603c1.164,0.056,2.123-0.589,2.281-1.226
	C916.005,51.446,916.005,50.49,913.979,50.063L913.979,50.063z"/>
<path fill-rule="evenodd" clip-rule="evenodd" fill="#06892F" d="M918.64,45.957c0,0,1.466-0.64,1.772,0.428
	c0.302,1.069-1.266,2.138-2.026,2.345c-0.76,0.216-4.655,0.216-7.898-1.275c0,0-0.075-0.021-0.171-0.062
	c0.685-0.637,1.31-1.37,1.824-2.189C912.665,45.476,916.36,46.228,918.64,45.957L918.64,45.957z"/>
<path fill-rule="evenodd" clip-rule="evenodd" fill="#06892F" d="M921.831,40.514c-0.506-0.37-1.774,0.855-3.396,1.072
	c-1.617,0.211-4.048,0.046-4.603-0.06c-0.06-0.012-0.111-0.017-0.162-0.022c-0.272,0.825-0.601,1.707-0.997,2.641
	c0.035,0.016,2.64,0.805,4.495,0.854c1.875,0.054,3.501-0.536,4.458-1.391C922.586,42.759,922.337,40.888,921.831,40.514
	L921.831,40.514z"/>
<path fill-rule="evenodd" clip-rule="evenodd" fill="#06892F" d="M922.138,35.82c-0.661-0.162-2.126,1.175-3.598,1.758
	c-1.176,0.467-3.057,0.498-4,0.488c-0.143,0.773-0.338,1.654-0.62,2.612c0.71,0,2.877-0.059,5.328-0.802
	c2.99-0.906,3.292-2.988,3.292-2.988S922.791,35.981,922.138,35.82L922.138,35.82z"/>
<path fill-rule="evenodd" clip-rule="evenodd" fill="#06892F" d="M922.438,30.165c0-0.241-0.087-0.542-0.348-0.653l-0.989,0.636
	c-0.33,0.48-0.791,1.181-1.648,1.935c-1.409,1.244-3.773,1.927-4.556,2.102l-0.063,0.039c0,0,0.104,1.013-0.136,2.786
	c0.968-0.12,3.411-0.549,5.509-2.101C922.892,32.938,922.438,30.485,922.438,30.165L922.438,30.165z"/>
<path fill-rule="evenodd" clip-rule="evenodd" fill="#06892F" d="M899.412,33.885c-0.054,0.168-0.637,0.884-0.969,1.213
	c0,0-0.546,0.387-0.211-0.189c0,0,0.438-1.023,0.832-1.313S899.475,33.721,899.412,33.885L899.412,33.885z M909.181,27.654
	c-1.175-0.801-3.189-0.477-5.014-0.162c-1.828,0.324-3.649,0.268-3.649,0.268c-0.959,0.162-1.868,1.229-2.58,2.297
	c-0.705,1.063-0.559,2.938,0,1.388c0.557-1.544,1.976-1.813,1.976-1.813c0.399-0.215,0.604,0.641,0.194,0.748
	c-0.396,0.106-0.499,0.585-0.396,1.011c0.095,0.423,1.144,0.619,1.313,0c0.206-0.744,0.66-0.426,0.806-0.108
	c0.155,0.328-0.652,1.014-1.267,1.229c-0.604,0.213-2.278,0.055-2.278,0.055s-1.523,0.188-0.295,1.068
	c0.354,0.252-0.464,1.064-0.611,1.438c-0.146,0.374,0.258,0.858-0.506,1.549c-0.602,0.55,0.205,0.592,0.205,0.592
	s1.008-0.961,1.316-1.18c0.297-0.211,1.77-1.706,2.375-2.296c0.614-0.584,1.569-1.068,2.435-1.808
	c0.86-0.752,1.564-2.297,3.03-2.141c1.471,0.162,2.278,2.025,2.278,2.025l2.277-1.491C910.79,30.321,910.332,28.455,909.181,27.654
	L909.181,27.654z"/>
<path fill="#1B171B" d="M877.478,66.323v-7.002h1.582v5.488h2.986v1.514H877.478L877.478,66.323z M882.697,66.323v-7.002h4.69v1.433
	h-3.109v1.24h2.837v1.407h-2.837v1.495h3.212v1.427H882.697L882.697,66.323z M893.072,66.323l-0.126-0.897
	c-0.229,0.365-0.511,0.641-0.828,0.819c-0.317,0.177-0.692,0.266-1.121,0.266c-0.399,0-0.769-0.08-1.107-0.244
	c-0.338-0.167-0.637-0.409-0.897-0.73c-0.272-0.332-0.477-0.721-0.616-1.164c-0.144-0.448-0.209-0.933-0.209-1.464
	c0-1.143,0.288-2.065,0.863-2.755c0.574-0.69,1.344-1.036,2.303-1.036c0.727,0,1.322,0.204,1.79,0.623
	c0.469,0.406,0.771,0.984,0.898,1.732h-1.513c-0.104-0.307-0.261-0.533-0.462-0.688c-0.207-0.153-0.46-0.229-0.757-0.229
	c-0.455,0-0.822,0.209-1.099,0.625c-0.279,0.417-0.423,0.973-0.423,1.66c0,0.677,0.139,1.218,0.414,1.621
	c0.278,0.399,0.643,0.6,1.107,0.6c0.36,0,0.669-0.107,0.913-0.318c0.241-0.212,0.393-0.511,0.452-0.892h-1.378v-1.344h2.78v3.815
	H893.072L893.072,66.323z M896.972,63.591h1.349l-0.689-2.413L896.972,63.591L896.972,63.591z M896.826,59.321h1.725l2.175,7.002
	h-1.691l-0.382-1.283h-2.062l-0.351,1.283h-1.636L896.826,59.321L896.826,59.321z M901.337,66.323v-7.002h2.173l0.811,3.409
	c0.077,0.304,0.145,0.596,0.198,0.879c0.059,0.279,0.114,0.557,0.157,0.828c0.051-0.285,0.113-0.583,0.18-0.896
	c0.063-0.313,0.147-0.646,0.232-1.007l0.764-3.213h2.175v7.002h-1.444V63.22c0-0.219,0.004-0.526,0.01-0.918
	c0.014-0.395,0.028-0.851,0.046-1.368l-1.182,5.39h-1.568l-1.16-5.39c0.021,0.621,0.036,1.184,0.047,1.678
	c0.009,0.495,0.015,0.881,0.015,1.16v2.552H901.337L901.337,66.323z M910.76,62.059h1.266c0.268,0,0.47-0.056,0.601-0.164
	c0.13-0.115,0.197-0.282,0.197-0.515c0-0.214-0.064-0.375-0.184-0.481c-0.127-0.108-0.313-0.161-0.548-0.161h-1.332V62.059
	L910.76,62.059z M910.76,64.931h1.191c0.375,0,0.643-0.055,0.789-0.173c0.148-0.122,0.229-0.32,0.229-0.601
	c0-0.255-0.072-0.448-0.217-0.573c-0.146-0.13-0.356-0.195-0.647-0.195h-1.345V64.931L910.76,64.931z M909.248,66.323v-7.002h2.995
	c0.714,0,1.242,0.146,1.59,0.442c0.338,0.293,0.513,0.74,0.513,1.354c0,0.371-0.081,0.686-0.236,0.934
	c-0.149,0.245-0.379,0.433-0.691,0.566c0.355,0.104,0.628,0.291,0.82,0.564c0.19,0.272,0.281,0.609,0.281,1.011
	c0,0.392-0.075,0.744-0.229,1.063c-0.164,0.32-0.386,0.564-0.669,0.74c-0.19,0.12-0.427,0.2-0.701,0.254
	c-0.274,0.047-0.695,0.073-1.262,0.073H909.248L909.248,66.323z M915.536,66.323v-7.002h1.577v7.002H915.536L915.536,66.323z
	 M918.364,66.323v-7.002h4.689v1.433h-3.108v1.24h2.841v1.407h-2.841v1.495h3.209v1.427H918.364L918.364,66.323z M924.088,66.323
	v-7.002h1.714l1.166,2.3c0.186,0.377,0.369,0.749,0.537,1.109c0.168,0.376,0.332,0.737,0.481,1.094
	c-0.022-0.532-0.035-1.029-0.047-1.488c-0.017-0.462-0.019-0.869-0.019-1.223v-1.792h1.523v7.002h-1.703l-1.215-2.367
	c-0.139-0.273-0.297-0.59-0.462-0.932c-0.17-0.354-0.348-0.729-0.533-1.13c0.028,0.456,0.053,0.883,0.064,1.273
	c0.017,0.398,0.025,0.741,0.025,1.043v2.112H924.088L924.088,66.323z M931.9,66.323v-5.58h-1.77v-1.422h5.121v1.422h-1.771v5.58
	H931.9L931.9,66.323z M935.944,66.323v-7.002h4.69v1.433h-3.11v1.24h2.845v1.407h-2.845v1.495h3.209v1.427H935.944L935.944,66.323z"
	/>
</svg>
